<mxfile host="app.diagrams.net" modified="2021-04-09T06:55:35.413Z" agent="5.0 (Windows NT 10.0; Win64; x64) AppleWebKit/537.36 (KHTML, like Gecko) Chrome/88.0.4324.182 Safari/537.36" etag="TjluOpe5p5r5sPwpprYQ" version="14.5.7" type="github">
  <diagram id="QEoOFMB9QdWzOJR0WDVQ" name="架构设计">
    <mxGraphModel dx="866" dy="522" grid="1" gridSize="10" guides="1" tooltips="1" connect="1" arrows="1" fold="1" page="1" pageScale="1" pageWidth="827" pageHeight="1169" math="0" shadow="0">
      <root>
        <mxCell id="0" />
        <mxCell id="1" parent="0" />
        <mxCell id="zALf2eaeC74s68lvdfPb-34" value="" style="rounded=0;whiteSpace=wrap;html=1;shadow=1;sketch=1;" vertex="1" parent="1">
          <mxGeometry x="207" y="683" width="360" height="130" as="geometry" />
        </mxCell>
        <mxCell id="zALf2eaeC74s68lvdfPb-18" value="数据库" style="shape=cylinder3;whiteSpace=wrap;html=1;boundedLbl=1;backgroundOutline=1;size=15;shadow=1;fillColor=#dae8fc;strokeColor=#6c8ebf;sketch=1;" vertex="1" parent="1">
          <mxGeometry x="590" y="120" width="140" height="115" as="geometry" />
        </mxCell>
        <mxCell id="zALf2eaeC74s68lvdfPb-19" value="" style="rounded=1;whiteSpace=wrap;html=1;shadow=1;sketch=1;fillColor=#e1d5e7;strokeColor=#9673a6;" vertex="1" parent="1">
          <mxGeometry x="540" y="155" width="80" height="65" as="geometry" />
        </mxCell>
        <mxCell id="zALf2eaeC74s68lvdfPb-4" value="" style="rounded=0;whiteSpace=wrap;html=1;shadow=1;sketch=1;fillColor=#f5f5f5;strokeColor=#666666;fontColor=#333333;" vertex="1" parent="1">
          <mxGeometry x="150" y="120" width="230" height="120" as="geometry" />
        </mxCell>
        <mxCell id="zALf2eaeC74s68lvdfPb-8" value="" style="rounded=1;whiteSpace=wrap;html=1;shadow=1;sketch=1;fillColor=#e1d5e7;strokeColor=#9673a6;" vertex="1" parent="1">
          <mxGeometry x="260" y="135" width="110" height="90" as="geometry" />
        </mxCell>
        <mxCell id="zALf2eaeC74s68lvdfPb-1" value="架构设计" style="rounded=1;whiteSpace=wrap;html=1;shadow=1;fillColor=#fff2cc;strokeColor=#d6b656;" vertex="1" parent="1">
          <mxGeometry x="40" y="40" width="70" height="30" as="geometry" />
        </mxCell>
        <mxCell id="zALf2eaeC74s68lvdfPb-12" style="edgeStyle=orthogonalEdgeStyle;rounded=0;orthogonalLoop=1;jettySize=auto;html=1;exitX=1;exitY=0.3333333333333333;exitDx=0;exitDy=0;exitPerimeter=0;entryX=0;entryY=0.5;entryDx=0;entryDy=0;" edge="1" parent="1" source="zALf2eaeC74s68lvdfPb-2" target="zALf2eaeC74s68lvdfPb-7">
          <mxGeometry relative="1" as="geometry" />
        </mxCell>
        <mxCell id="zALf2eaeC74s68lvdfPb-2" value="Actor" style="shape=umlActor;verticalLabelPosition=bottom;verticalAlign=top;html=1;outlineConnect=0;shadow=1;fillColor=#f8cecc;strokeColor=#b85450;" vertex="1" parent="1">
          <mxGeometry x="80" y="120" width="20" height="30" as="geometry" />
        </mxCell>
        <mxCell id="zALf2eaeC74s68lvdfPb-13" style="edgeStyle=orthogonalEdgeStyle;rounded=0;orthogonalLoop=1;jettySize=auto;html=1;entryX=0;entryY=1;entryDx=0;entryDy=0;" edge="1" parent="1" source="zALf2eaeC74s68lvdfPb-3" target="zALf2eaeC74s68lvdfPb-6">
          <mxGeometry relative="1" as="geometry" />
        </mxCell>
        <mxCell id="zALf2eaeC74s68lvdfPb-3" value="Actor" style="shape=umlActor;verticalLabelPosition=bottom;verticalAlign=top;html=1;outlineConnect=0;shadow=1;fillColor=#f8cecc;strokeColor=#b85450;" vertex="1" parent="1">
          <mxGeometry x="80" y="180" width="20" height="30" as="geometry" />
        </mxCell>
        <mxCell id="zALf2eaeC74s68lvdfPb-5" value="tomcat" style="text;html=1;align=center;verticalAlign=middle;resizable=0;points=[];autosize=1;" vertex="1" parent="1">
          <mxGeometry x="220" y="100" width="50" height="20" as="geometry" />
        </mxCell>
        <mxCell id="zALf2eaeC74s68lvdfPb-16" style="edgeStyle=orthogonalEdgeStyle;rounded=0;orthogonalLoop=1;jettySize=auto;html=1;exitX=1;exitY=0.5;exitDx=0;exitDy=0;entryX=0;entryY=0.75;entryDx=0;entryDy=0;" edge="1" parent="1" source="zALf2eaeC74s68lvdfPb-6" target="zALf2eaeC74s68lvdfPb-11">
          <mxGeometry relative="1" as="geometry" />
        </mxCell>
        <mxCell id="zALf2eaeC74s68lvdfPb-6" value="线程" style="ellipse;whiteSpace=wrap;html=1;shadow=1;fillColor=#f8cecc;strokeColor=#b85450;" vertex="1" parent="1">
          <mxGeometry x="180" y="190" width="40" height="20" as="geometry" />
        </mxCell>
        <mxCell id="zALf2eaeC74s68lvdfPb-15" style="edgeStyle=orthogonalEdgeStyle;rounded=0;orthogonalLoop=1;jettySize=auto;html=1;exitX=1;exitY=0.5;exitDx=0;exitDy=0;entryX=0;entryY=0.5;entryDx=0;entryDy=0;" edge="1" parent="1" source="zALf2eaeC74s68lvdfPb-7" target="zALf2eaeC74s68lvdfPb-10">
          <mxGeometry relative="1" as="geometry" />
        </mxCell>
        <mxCell id="zALf2eaeC74s68lvdfPb-7" value="线程" style="ellipse;whiteSpace=wrap;html=1;shadow=1;fillColor=#f8cecc;strokeColor=#b85450;" vertex="1" parent="1">
          <mxGeometry x="170" y="150" width="40" height="20" as="geometry" />
        </mxCell>
        <mxCell id="zALf2eaeC74s68lvdfPb-9" value="数据库连接池" style="text;html=1;align=center;verticalAlign=middle;whiteSpace=wrap;rounded=0;shadow=1;" vertex="1" parent="1">
          <mxGeometry x="275" y="135" width="80" height="20" as="geometry" />
        </mxCell>
        <mxCell id="zALf2eaeC74s68lvdfPb-22" style="edgeStyle=orthogonalEdgeStyle;rounded=0;orthogonalLoop=1;jettySize=auto;html=1;exitX=1;exitY=0.5;exitDx=0;exitDy=0;entryX=0;entryY=0.25;entryDx=0;entryDy=0;" edge="1" parent="1" source="zALf2eaeC74s68lvdfPb-10" target="zALf2eaeC74s68lvdfPb-20">
          <mxGeometry relative="1" as="geometry" />
        </mxCell>
        <mxCell id="zALf2eaeC74s68lvdfPb-27" value="执行SQL语句" style="edgeLabel;html=1;align=center;verticalAlign=middle;resizable=0;points=[];" vertex="1" connectable="0" parent="zALf2eaeC74s68lvdfPb-22">
          <mxGeometry x="0.151" y="-1" relative="1" as="geometry">
            <mxPoint as="offset" />
          </mxGeometry>
        </mxCell>
        <mxCell id="zALf2eaeC74s68lvdfPb-10" value="连接" style="rounded=0;whiteSpace=wrap;html=1;shadow=1;fillColor=#d5e8d4;strokeColor=#82b366;" vertex="1" parent="1">
          <mxGeometry x="275" y="160" width="40" height="20" as="geometry" />
        </mxCell>
        <mxCell id="zALf2eaeC74s68lvdfPb-23" style="edgeStyle=orthogonalEdgeStyle;rounded=0;orthogonalLoop=1;jettySize=auto;html=1;entryX=0;entryY=0.5;entryDx=0;entryDy=0;" edge="1" parent="1" source="zALf2eaeC74s68lvdfPb-11" target="zALf2eaeC74s68lvdfPb-21">
          <mxGeometry relative="1" as="geometry" />
        </mxCell>
        <mxCell id="zALf2eaeC74s68lvdfPb-11" value="连接" style="rounded=0;whiteSpace=wrap;html=1;shadow=1;fillColor=#d5e8d4;strokeColor=#82b366;" vertex="1" parent="1">
          <mxGeometry x="315" y="195" width="40" height="20" as="geometry" />
        </mxCell>
        <mxCell id="zALf2eaeC74s68lvdfPb-17" value="执行SQL" style="text;html=1;align=center;verticalAlign=middle;resizable=0;points=[];autosize=1;" vertex="1" parent="1">
          <mxGeometry x="220" y="180" width="60" height="20" as="geometry" />
        </mxCell>
        <mxCell id="zALf2eaeC74s68lvdfPb-20" value="连接" style="rounded=0;whiteSpace=wrap;html=1;shadow=1;fillColor=#d5e8d4;strokeColor=#82b366;" vertex="1" parent="1">
          <mxGeometry x="560" y="165" width="40" height="20" as="geometry" />
        </mxCell>
        <mxCell id="zALf2eaeC74s68lvdfPb-26" style="edgeStyle=orthogonalEdgeStyle;rounded=0;orthogonalLoop=1;jettySize=auto;html=1;exitX=1;exitY=0.5;exitDx=0;exitDy=0;entryX=0;entryY=0.5;entryDx=0;entryDy=0;" edge="1" parent="1" source="zALf2eaeC74s68lvdfPb-21" target="zALf2eaeC74s68lvdfPb-25">
          <mxGeometry relative="1" as="geometry" />
        </mxCell>
        <mxCell id="zALf2eaeC74s68lvdfPb-21" value="连接" style="rounded=0;whiteSpace=wrap;html=1;shadow=1;fillColor=#d5e8d4;strokeColor=#82b366;" vertex="1" parent="1">
          <mxGeometry x="565" y="195" width="40" height="20" as="geometry" />
        </mxCell>
        <mxCell id="zALf2eaeC74s68lvdfPb-25" value="线程" style="ellipse;whiteSpace=wrap;html=1;shadow=1;sketch=1;fillColor=#f8cecc;strokeColor=#b85450;" vertex="1" parent="1">
          <mxGeometry x="670" y="160" width="40" height="25" as="geometry" />
        </mxCell>
        <mxCell id="zALf2eaeC74s68lvdfPb-28" value="SQL接口" style="rounded=1;whiteSpace=wrap;html=1;shadow=1;sketch=1;" vertex="1" parent="1">
          <mxGeometry x="585" y="260" width="60" height="20" as="geometry" />
        </mxCell>
        <mxCell id="zALf2eaeC74s68lvdfPb-29" value="SQL解析器" style="rounded=1;whiteSpace=wrap;html=1;shadow=1;sketch=1;" vertex="1" parent="1">
          <mxGeometry x="670" y="260" width="80" height="20" as="geometry" />
        </mxCell>
        <mxCell id="zALf2eaeC74s68lvdfPb-30" value="查询优化器" style="rounded=1;whiteSpace=wrap;html=1;shadow=1;sketch=1;" vertex="1" parent="1">
          <mxGeometry x="585" y="290" width="70" height="20" as="geometry" />
        </mxCell>
        <mxCell id="zALf2eaeC74s68lvdfPb-31" value="执行引擎" style="rounded=1;whiteSpace=wrap;html=1;shadow=1;sketch=1;" vertex="1" parent="1">
          <mxGeometry x="580" y="320" width="180" height="30" as="geometry" />
        </mxCell>
        <mxCell id="zALf2eaeC74s68lvdfPb-32" value="执行器" style="rounded=1;whiteSpace=wrap;html=1;shadow=1;sketch=1;" vertex="1" parent="1">
          <mxGeometry x="675" y="290" width="75" height="20" as="geometry" />
        </mxCell>
        <mxCell id="zALf2eaeC74s68lvdfPb-33" value="InnoDB 架构设计" style="rounded=1;whiteSpace=wrap;html=1;shadow=1;fillColor=#fff2cc;strokeColor=#d6b656;" vertex="1" parent="1">
          <mxGeometry x="40" y="400" width="100" height="30" as="geometry" />
        </mxCell>
        <mxCell id="zALf2eaeC74s68lvdfPb-43" style="edgeStyle=orthogonalEdgeStyle;rounded=1;orthogonalLoop=1;jettySize=auto;html=1;exitX=0;exitY=0.5;exitDx=0;exitDy=0;entryX=0;entryY=0;entryDx=45;entryDy=0;entryPerimeter=0;" edge="1" parent="1" source="zALf2eaeC74s68lvdfPb-34" target="zALf2eaeC74s68lvdfPb-42">
          <mxGeometry relative="1" as="geometry" />
        </mxCell>
        <mxCell id="zALf2eaeC74s68lvdfPb-44" value="② 写入数据的旧值 便于回滚" style="edgeLabel;html=1;align=center;verticalAlign=middle;resizable=0;points=[];" vertex="1" connectable="0" parent="zALf2eaeC74s68lvdfPb-43">
          <mxGeometry x="0.0149" y="-1" relative="1" as="geometry">
            <mxPoint x="-34" y="9" as="offset" />
          </mxGeometry>
        </mxCell>
        <mxCell id="zALf2eaeC74s68lvdfPb-35" value="Buffer Pool&lt;br&gt;缓冲池" style="rounded=1;whiteSpace=wrap;html=1;shadow=1;sketch=1;fillColor=#f8cecc;strokeColor=#b85450;" vertex="1" parent="1">
          <mxGeometry x="237.75" y="723" width="78.5" height="50" as="geometry" />
        </mxCell>
        <mxCell id="zALf2eaeC74s68lvdfPb-37" style="edgeStyle=orthogonalEdgeStyle;rounded=0;orthogonalLoop=1;jettySize=auto;html=1;exitX=0.5;exitY=0;exitDx=0;exitDy=0;entryX=0.5;entryY=1;entryDx=0;entryDy=0;" edge="1" parent="1" source="zALf2eaeC74s68lvdfPb-36" target="zALf2eaeC74s68lvdfPb-35">
          <mxGeometry relative="1" as="geometry" />
        </mxCell>
        <mxCell id="zALf2eaeC74s68lvdfPb-38" value="①&amp;nbsp; 从磁盘读取数据" style="edgeLabel;html=1;align=center;verticalAlign=middle;resizable=0;points=[];" vertex="1" connectable="0" parent="zALf2eaeC74s68lvdfPb-37">
          <mxGeometry x="-0.1818" y="-3" relative="1" as="geometry">
            <mxPoint x="-3" y="-18" as="offset" />
          </mxGeometry>
        </mxCell>
        <mxCell id="zALf2eaeC74s68lvdfPb-36" value="磁盘" style="shape=document;whiteSpace=wrap;html=1;boundedLbl=1;shadow=1;sketch=1;" vertex="1" parent="1">
          <mxGeometry x="252" y="850" width="50" height="30" as="geometry" />
        </mxCell>
        <mxCell id="zALf2eaeC74s68lvdfPb-40" value="&lt;p style=&quot;line-height: 200%&quot;&gt;在执行这一条更新语句的时候，首先要找到这条更新语句 ，先看是否在缓冲池中，如果不在，就直接从磁盘加载到缓冲池中，然后给该记录添加独占锁&lt;/p&gt;&lt;p style=&quot;line-height: 200%&quot;&gt;将原来的旧值，写入到 undo 日志文件 ，便于回滚操作&lt;/p&gt;&lt;p style=&quot;line-height: 200%&quot;&gt;更新内存中的数据 ， 此时脏数据便产生了，因为内存中的数据是更新后的值，但是磁盘中对应的数据还是原来的值&lt;/p&gt;&lt;p style=&quot;line-height: 200%&quot;&gt;将更新操作，写入到 redo log buffer 中&amp;nbsp; ，作为备选方案，在服务宕机时，完成数据的一致性。&amp;nbsp; 注意此时事务还没有提交，系统宕机不影响数据的一致性 ，提交事务的时候，按照一定的策略把redo 日志从redo log buffer 里刷入到磁盘文件里去。&lt;/p&gt;" style="text;html=1;strokeColor=none;fillColor=none;align=left;verticalAlign=middle;whiteSpace=wrap;rounded=0;shadow=0;sketch=0;" vertex="1" parent="1">
          <mxGeometry x="80" y="910" width="740" height="180" as="geometry" />
        </mxCell>
        <mxCell id="zALf2eaeC74s68lvdfPb-42" value="undo&amp;nbsp; 日志文件" style="shape=card;whiteSpace=wrap;html=1;shadow=0;sketch=1;align=left;fillColor=#e1d5e7;strokeColor=#9673a6;" vertex="1" parent="1">
          <mxGeometry x="117" y="837" width="60" height="43" as="geometry" />
        </mxCell>
        <mxCell id="zALf2eaeC74s68lvdfPb-47" style="edgeStyle=orthogonalEdgeStyle;rounded=1;orthogonalLoop=1;jettySize=auto;html=1;exitX=0.5;exitY=1;exitDx=0;exitDy=0;entryX=0.5;entryY=0;entryDx=0;entryDy=0;" edge="1" parent="1" source="zALf2eaeC74s68lvdfPb-45" target="zALf2eaeC74s68lvdfPb-35">
          <mxGeometry relative="1" as="geometry" />
        </mxCell>
        <mxCell id="zALf2eaeC74s68lvdfPb-45" value="更新语句" style="rounded=1;whiteSpace=wrap;html=1;shadow=0;sketch=1;align=center;" vertex="1" parent="1">
          <mxGeometry x="232" y="590" width="90" height="30" as="geometry" />
        </mxCell>
        <mxCell id="zALf2eaeC74s68lvdfPb-48" value="" style="endArrow=classic;html=1;entryX=1;entryY=0.5;entryDx=0;entryDy=0;" edge="1" parent="1" target="zALf2eaeC74s68lvdfPb-35">
          <mxGeometry width="50" height="50" relative="1" as="geometry">
            <mxPoint x="280" y="700" as="sourcePoint" />
            <mxPoint x="460" y="840" as="targetPoint" />
            <Array as="points">
              <mxPoint x="390" y="720" />
            </Array>
          </mxGeometry>
        </mxCell>
        <mxCell id="zALf2eaeC74s68lvdfPb-49" value="③ 更新内存数据" style="edgeLabel;html=1;align=center;verticalAlign=middle;resizable=0;points=[];" vertex="1" connectable="0" parent="zALf2eaeC74s68lvdfPb-48">
          <mxGeometry x="-0.2699" y="-1" relative="1" as="geometry">
            <mxPoint x="19.34" y="6.14" as="offset" />
          </mxGeometry>
        </mxCell>
        <mxCell id="zALf2eaeC74s68lvdfPb-50" value="Inno DB" style="text;html=1;strokeColor=none;fillColor=none;align=center;verticalAlign=middle;whiteSpace=wrap;rounded=0;shadow=0;sketch=1;" vertex="1" parent="1">
          <mxGeometry x="500" y="690" width="65" height="20" as="geometry" />
        </mxCell>
        <mxCell id="zALf2eaeC74s68lvdfPb-55" style="edgeStyle=orthogonalEdgeStyle;rounded=1;orthogonalLoop=1;jettySize=auto;html=1;exitX=0.5;exitY=1;exitDx=0;exitDy=0;entryX=0;entryY=0;entryDx=45;entryDy=0;entryPerimeter=0;" edge="1" parent="1" source="zALf2eaeC74s68lvdfPb-51" target="zALf2eaeC74s68lvdfPb-54">
          <mxGeometry relative="1" as="geometry" />
        </mxCell>
        <mxCell id="zALf2eaeC74s68lvdfPb-51" value="Redo Log Buffer" style="rounded=1;whiteSpace=wrap;html=1;shadow=1;sketch=1;fillColor=#f8cecc;strokeColor=#b85450;" vertex="1" parent="1">
          <mxGeometry x="380" y="760" width="110" height="40" as="geometry" />
        </mxCell>
        <mxCell id="zALf2eaeC74s68lvdfPb-52" style="edgeStyle=orthogonalEdgeStyle;rounded=1;orthogonalLoop=1;jettySize=auto;html=1;exitX=0.5;exitY=0;exitDx=0;exitDy=0;entryX=1;entryY=0.5;entryDx=0;entryDy=0;" edge="1" parent="1" source="zALf2eaeC74s68lvdfPb-51" target="zALf2eaeC74s68lvdfPb-51">
          <mxGeometry relative="1" as="geometry">
            <Array as="points">
              <mxPoint x="435" y="730" />
              <mxPoint x="550" y="730" />
              <mxPoint x="550" y="780" />
            </Array>
          </mxGeometry>
        </mxCell>
        <mxCell id="zALf2eaeC74s68lvdfPb-53" value="④&amp;nbsp; 写redo 日志" style="edgeLabel;html=1;align=center;verticalAlign=middle;resizable=0;points=[];" vertex="1" connectable="0" parent="zALf2eaeC74s68lvdfPb-52">
          <mxGeometry x="-0.5294" relative="1" as="geometry">
            <mxPoint x="25" as="offset" />
          </mxGeometry>
        </mxCell>
        <mxCell id="zALf2eaeC74s68lvdfPb-54" value="redo log&amp;nbsp;&lt;br&gt;日志文件" style="shape=card;whiteSpace=wrap;html=1;shadow=0;sketch=1;align=left;fillColor=#dae8fc;strokeColor=#6c8ebf;" vertex="1" parent="1">
          <mxGeometry x="390" y="860" width="60" height="43" as="geometry" />
        </mxCell>
        <mxCell id="zALf2eaeC74s68lvdfPb-56" value="⑥&amp;nbsp; 通过 innodb_flush_log_at_trx_commit 来刷磁盘" style="text;html=1;align=center;verticalAlign=middle;resizable=0;points=[];autosize=1;" vertex="1" parent="1">
          <mxGeometry x="315" y="830" width="290" height="20" as="geometry" />
        </mxCell>
        <mxCell id="zALf2eaeC74s68lvdfPb-57" value="" style="endArrow=classic;html=1;" edge="1" parent="1">
          <mxGeometry width="50" height="50" relative="1" as="geometry">
            <mxPoint x="280" y="650" as="sourcePoint" />
            <mxPoint x="280" y="680" as="targetPoint" />
            <Array as="points">
              <mxPoint x="360" y="660" />
            </Array>
          </mxGeometry>
        </mxCell>
        <mxCell id="zALf2eaeC74s68lvdfPb-58" value="⑤ 事务提交" style="edgeLabel;html=1;align=center;verticalAlign=middle;resizable=0;points=[];" vertex="1" connectable="0" parent="zALf2eaeC74s68lvdfPb-57">
          <mxGeometry x="-0.206" y="-2" relative="1" as="geometry">
            <mxPoint as="offset" />
          </mxGeometry>
        </mxCell>
      </root>
    </mxGraphModel>
  </diagram>
</mxfile>
